<svg width="1251" height="183" viewBox="0 0 1251 183" fill="none" xmlns="http://www.w3.org/2000/svg">
<path fill-rule="evenodd" clip-rule="evenodd" d="M155.344 117.305C149.996 114.575 144.426 116.325 137.504 115.852C144.047 120.774 149.914 116.563 155.344 117.305ZM266.438 36.9536C274.145 43.1646 279.82 35.8052 285.82 35.8325C279.832 36.1724 273.852 36.5239 266.438 36.9536ZM149.656 29.5747C149.766 30.063 149.875 30.5435 149.984 31.0239H172.488C172.488 30.5435 172.488 30.063 172.492 29.5747H149.656ZM709 142.985C702.859 143.262 696.82 143.922 690.711 142.563C689.262 142.235 687.039 142.614 686.605 144.762C686.328 146.122 687.914 146.524 688.629 146.165C695.113 142.844 702.586 146.961 709 142.985ZM202.906 141.993C195.977 139.504 189.191 140.415 182.438 142.114C189.293 144.333 196.109 141.422 202.906 141.993ZM969.664 140.575C960.684 137.223 955.113 137.614 948.555 141.782C955.512 139.383 962.684 142.942 969.664 140.575ZM824.695 129.032C828.918 133.313 833.316 127.723 837.527 129.333C838.324 129.645 840.473 130.024 840.133 128.004C839.941 126.864 839.895 124.942 837.551 124.961C832.879 125.004 828.453 125.524 824.695 129.032ZM914.023 149.915C909.555 143.934 904.203 147.665 900.414 145.153C900.094 144.942 895.691 147.133 894.934 150.293C901.234 152.442 906.562 147.102 914.023 149.915ZM1170.48 105.563H1193.69C1193.65 104.833 1193.61 104.094 1193.56 103.364C1185.86 105.094 1177.98 101.813 1170.48 105.563ZM931.293 149.473C933.531 148.063 938.895 151.864 938.852 147.012C938.805 142.473 933.602 145.223 930.793 144.954C929.094 144.782 925.531 142.805 925.281 146.813C924.973 151.805 928.883 148.782 931.293 149.473ZM811.797 129.563C803.379 128.793 794.926 126.883 786.684 130.043C795.137 131.915 803.48 131.024 811.797 129.563ZM230.988 39.9419C241.32 43.7739 249.266 43.5435 257.105 39.1841C249.129 40.8833 241.145 37.0825 230.988 39.9419ZM1124.82 138.872H1155.9C1145.54 136.493 1135.18 136.223 1124.82 138.872ZM804.211 139.872C801.219 143.692 796.262 139.825 793.074 143.083C792.312 143.864 790.59 144.602 791.719 145.973C792.34 146.723 794.453 147.403 794.816 147.032C800.301 141.563 806.637 143.774 812.715 145.094C814.605 145.504 816.113 145.442 815.883 143.762C815.68 142.204 814.953 139.223 812.129 140.325C809.43 141.383 807.008 142.372 804.211 139.872ZM247.246 23.6138C251.73 23.6138 255.398 23.7622 259.047 23.5552C260.867 23.4536 263.25 24.7427 264.414 22.1919C265.844 19.063 260.613 20.4341 260.945 17.0044C261.117 15.1919 255.367 15.7427 255.246 16.2622C254.281 20.3521 249.297 18.7427 247.246 23.6138ZM1096.93 53.5747C1110.87 56.9731 1110.87 56.9731 1116.64 53.7544C1107.04 47.8638 1106.81 47.8638 1096.93 53.5747ZM200.742 38.895C206.871 44.8833 222.645 44.7349 229.156 39.2739C219.902 37.563 210.652 41.0044 200.742 38.895ZM1106.4 23.5825C1104.72 23.5825 1103.02 23.7349 1101.36 23.5552C1096 22.9927 1105.5 20.895 1101.17 20.7544C1091.27 20.4536 1081.36 20.6646 1071.45 20.6646C1071.41 21.8833 1071.38 23.0942 1071.34 24.3052C1083.29 20.6216 1094.54 25.8247 1106.4 23.5825ZM631.781 152.293C635.5 147.313 642.773 145.032 647.77 146.922C653.148 148.961 663.43 147.864 670.113 143.614C653.371 142.235 638.605 145.993 622.594 144.754C625.488 149.864 632.797 144.614 631.781 152.293ZM62.7734 119.665C66.0625 121.512 69.5273 122.473 70.7969 126.114C73.0859 124.934 75.4883 130.024 77.2617 126.454C78.8164 123.313 80.6484 124.563 82.7656 124.762C88.9766 125.364 95.1992 125.852 101.422 126.325C104.137 126.524 108.145 126.563 108.156 123.774C108.164 121.442 104.625 119.512 101.141 120.184C98.2266 120.754 95.1484 119.504 92.2266 121.282C91.1172 121.954 88.9297 122.094 87.8633 121.442C79.9297 116.602 71.2969 120.254 62.7734 119.665ZM173.656 144.633C172.488 141.825 170.91 141.614 169.023 141.825C162.02 142.602 155 143.254 148.008 144.114C128.586 146.493 109.148 148.012 89.5586 146.364C85.25 145.993 80.8789 146.262 76.543 146.333C75.1406 146.352 73.3164 145.915 73.0195 148.145C72.7383 150.235 73.8242 151.793 75.6992 152.192C77.6523 152.602 79.7734 152.504 81.793 152.325C98.9492 150.864 116.105 149.293 133.262 147.844C146.551 146.711 159.848 145.723 173.656 144.633ZM771.906 130.961C740.871 124.352 709.906 129.825 678.906 130.063C709.938 136.352 740.914 131.692 771.906 130.961ZM416.797 127.083C418.164 124.864 422.039 125.985 421.395 122.293C421.246 121.461 422.141 120.504 420.594 120.282C414.449 119.403 408.289 118.633 402.129 119.942C400.258 120.333 398.434 120.762 398.621 123.852C398.68 124.915 396.152 127.942 392.633 126.223C386.629 123.282 380.551 125.192 374.664 127.352C372.941 127.993 369.906 128.422 369.715 127.352C368.418 120.004 365.473 125.524 363.07 126.223C361.484 126.665 358.391 127.122 358.34 126.915C356.211 119.333 351.211 124.313 348.16 125.075C342.066 126.614 336.219 125.903 330.199 125.993C322.164 126.122 314.324 124.622 306.395 124.864C297.02 125.153 287.664 126.211 278.297 126.274C264.082 126.364 249.832 126.415 235.66 125.454C226.43 124.844 217.238 128.192 208.34 126.153C193.164 122.684 178.633 127.973 163.766 127.993C161.957 127.993 160.406 129.075 159.492 131.825C164.789 131.333 170.055 133.364 174.281 133.165C181.297 132.844 188.723 134.165 195.344 132.192C201.777 130.274 209.656 139.223 214.594 129.344C214.812 129.473 215.094 129.563 215.234 129.754C220.625 136.883 227.055 131.055 232.773 130.743C254.164 129.583 275.812 133.973 296.898 129.122C307.531 126.684 317.812 131.364 328.207 128.403C329.695 127.985 334.156 126.594 334.207 131.102C334.25 135.012 330.91 133.704 328.699 134.063C327.973 134.172 327.262 134.403 326.547 134.583C327.082 137.543 328.578 138.563 331.633 138.735C344.289 139.422 356.719 136.735 369.363 136.575C385.406 136.372 401.406 133.774 417.457 132.543C435.047 131.192 452.676 130.211 470.285 129.075C466.727 129.864 467.762 124.633 464.637 124.825C454.344 125.422 444.062 126.504 433.809 127.313C428.23 127.754 422.918 129.704 416.797 127.083ZM37.1172 67.6528C33.1836 66.6021 29.8516 69.3833 26.082 69.4146C24.6523 69.4341 22.875 70.2427 22.4219 68.0122C22.0703 66.2739 22.8555 65.6021 24.6953 64.9224C29.9375 63.0044 35.0039 60.313 40.7773 61.0942C46.2422 61.8325 48.6914 56.8833 52.3516 54.6646C50.4258 54.4731 47.9102 54.2231 45.8398 54.0239C52.2305 46.7231 58.4219 51.9536 65.207 55.1646C60.0313 50.6021 59.7695 45.895 63.5469 40.3833C66.6758 43.145 68.0117 46.0825 65.7422 49.0122C71.75 54.5942 78.7031 48.4536 85.9141 52.1528C92.8086 55.6919 102.227 52.9849 109.906 51.7114C113.172 51.1646 116.184 50.1138 119.621 51.1646C124.125 52.5552 123.906 45.6646 128.023 46.313C128.066 44.2427 124.328 45.4146 124.961 42.7231C125.09 42.1919 124.508 40.7427 124.094 41.3052C118.316 49.0942 119.027 34.7427 114.145 38.9028C122.348 37.1138 130.367 36.2817 136.418 30.145C137.211 29.3442 139.133 29.313 138.559 27.6919C138.059 26.313 136.98 25.3442 135.09 25.313C127.902 25.1919 120.578 23.7231 113.281 29.0942C120.234 16.2036 125.727 12.7817 141.988 13.813C145.352 14.0239 148.164 12.7036 151.375 12.7739C162.902 13.0435 174.441 12.7935 185.977 12.9927C187.555 13.0239 191.043 10.9927 190.559 15.6216C190.25 18.5239 188.941 19.3247 186.277 19.0239C176.539 17.9731 166.418 21.4419 157 16.5942C155.496 15.8247 154.609 16.1138 154.309 17.7427C154.059 19.1138 154.367 20.5435 156.039 20.4028C165.062 19.645 173.805 23.3247 182.812 22.0552C186.523 21.5239 190.227 21.3716 193.656 22.7036C195.418 23.4028 197.062 23.5825 198.812 23.5942C211.477 23.7036 224.113 20.7935 236.812 23.5552C240.656 24.3833 243.687 23.6528 243.566 18.3325C243.539 17.313 244.617 14.0044 248.426 14.2349C257.879 14.7935 267.391 14.4146 277.328 14.813C272.105 15.6333 274.082 20.7935 271.582 23.1919C273.563 24.2036 275.398 25.6216 277.875 25.1138C280.355 24.6138 281.699 22.8833 282.777 20.8247C281.059 20.0552 279.34 19.2739 277.422 18.4028C283.602 15.0239 290.457 16.9849 296.523 14.6919C296.887 14.563 297.961 15.2739 298.094 15.7544C298.418 16.9614 298.234 17.9849 297.008 19.0044C294.047 21.4927 291.309 18.7544 288.496 19.0435C287.102 19.1724 285.23 18.4536 284.699 20.5239C284.094 22.9419 286.535 22.813 287.469 23.8638C290.504 27.2739 294.207 21.5435 296.785 25.0747C302.789 20.4419 310.484 29.1841 316.777 22.6528C317.391 22.0122 323.926 22.1528 327.461 23.0435C330.418 23.7935 332.18 23.3716 334.195 20.313C324.34 21.7427 315.133 18.1021 305.781 20.4731C303.883 20.9614 301.625 20.8521 300.516 18.5044C302.676 17.5942 302.77 14.0044 305.992 14.395C307.5 14.5825 309.059 14.4028 310.586 14.4146C314.781 14.4536 320.418 18.0044 321.324 9.89502C321.391 9.27393 323.441 8.87158 325.504 7.96143C323.43 14.3442 326.516 14.6138 331.305 14.5435C347.664 14.313 364.207 14.8638 380.277 16.6646C394.23 18.2231 407.547 16.0435 421.078 16.4224C428.031 16.6138 435.508 16.2114 442.16 17.9341C450.477 20.0747 458.422 18.1216 466.504 18.4224C487.07 19.2036 507.695 20.1919 528.234 19.3833C539.344 18.9419 550.227 21.7739 561.648 19.2544C568.941 17.6646 577.176 17.1021 585.777 19.0552C592.434 20.5552 601.133 21.0747 609.164 19.5317C616.594 18.1138 624.566 19.4341 632.301 19.6138C642.051 19.8325 651.812 20.2817 661.391 17.7544L661.16 17.9731C674.285 20.8052 687.359 16.2739 700.648 18.1528C718.551 20.6841 736.668 16.9419 754.793 18.7544C768.098 20.0825 781.695 18.2427 795.062 19.2036C813.551 20.5239 831.902 17.4849 850.305 18.4614C864.937 19.2544 879.715 17.4419 894.031 18.5044C908.941 19.6138 923.953 15.563 938.324 19.4224C944.871 21.1919 950.512 21.7036 956.113 18.8716C962.715 15.5435 967.172 22.313 973.543 21.5317C978.004 20.9927 982.812 22.1216 987.543 20.6646C991.223 19.5239 994.281 22.0317 998.113 23.813C997.934 21.4419 995.824 17.9341 1000.91 18.8833C1004.73 19.5942 1008.78 19.1528 1012.72 18.9927C1016.28 18.8521 1014.39 20.3833 1013.67 21.6333C1015.38 21.8442 1017.12 24.7349 1018.3 23.145C1022.17 17.9536 1025.36 22.0239 1028.87 23.2427C1031.03 24.0044 1031.48 23.8247 1031.84 20.7544C1032.35 16.395 1041.1 16.8638 1044.7 21.3247C1047.68 25.0044 1057.72 24.6646 1058.72 20.5239C1059.56 17.0435 1061.54 17.5044 1063.71 17.5044C1078.43 17.4731 1093.16 17.4927 1107.9 17.4927C1110.49 17.4927 1112.41 18.645 1114.51 20.9146C1111.38 20.7739 1109 20.6646 1106.18 20.5317C1109.13 23.9341 1112.73 25.1528 1116.09 26.9536C1119.42 28.7427 1122.35 27.5552 1123.02 25.3052C1124.85 19.1138 1130.16 19.7622 1133.88 20.1021C1138.43 20.5122 1143.02 19.8638 1147.89 20.8521C1146.43 23.1841 1142.93 22.5317 1141.88 25.2349C1146.92 31.0942 1154.16 28.0942 1160.22 29.7036C1161.42 30.0239 1162.84 29.5044 1164.02 29.8442C1166.62 30.5942 1170.49 31.2036 1170.35 34.145C1170.2 37.0435 1166.54 37.2817 1163.72 37.4419C1157.29 37.8247 1150.84 38.2935 1144.59 36.3638C1142.36 35.6841 1141.36 37.2036 1139.48 38.0435C1145.99 44.6724 1154.75 42.6333 1161.96 42.8638C1169.04 43.0825 1175.43 44.7427 1182.05 46.2739C1183.44 46.6138 1185.39 47.1216 1184.09 49.2114C1183.37 50.3638 1183.35 52.395 1180.48 51.5239C1175.54 50.0239 1170.28 53.0435 1165.18 51.2349C1161.78 50.0122 1161.81 54.4849 1159.31 54.7427C1159.9 59.0239 1162.84 55.4146 1164.64 56.1646C1167.19 57.2427 1170.38 54.7349 1173.29 56.5239C1171.6 60.8247 1167.29 57.6333 1163.03 60.7114C1172.62 57.7817 1175.98 69.3833 1184.9 66.0942C1179.15 67.4849 1174.21 69.5435 1169.35 72.2544C1173.54 71.8521 1176.02 74.4341 1179.17 76.9927C1185.36 81.9927 1194.03 81.0552 1201.2 80.7231C1208.61 80.3833 1217.1 78.8247 1223.52 80.0044C1231.8 81.5317 1243.27 78.0044 1248.42 88.0239C1237.79 88.0239 1226.69 87.1138 1215.84 88.3442C1208.51 89.1724 1202.65 88.9731 1196.99 83.8247C1195.63 82.5825 1191.52 81.9927 1190.3 86.1216C1189.08 90.2817 1185.55 89.2036 1182.37 89.7739C1178.57 90.4614 1175.02 92.7544 1171.49 94.5747C1170.99 94.8325 1170.82 96.5825 1171.15 97.3716C1171.73 98.7935 1172.76 97.395 1173.61 97.3521C1177.11 97.2114 1181.1 93.1333 1183.95 98.6841C1184.1 98.9849 1185.95 98.9419 1186.08 98.6528C1189.52 91.0122 1194.58 97.0239 1198.63 97.4614C1202.38 97.8638 1205.86 99.7739 1208.79 95.813C1209.18 95.3052 1210.39 94.813 1210.85 95.0435C1220.06 99.6138 1230.55 97.2036 1239.92 100.454C1242.41 101.325 1244.29 103.563 1247.17 101.422C1249.04 100.024 1250.03 101.614 1250.3 103.094C1250.66 105.024 1248.86 104.524 1247.75 104.915C1241.25 107.133 1234.73 104.903 1228.22 105.114C1225.56 105.192 1222.81 104.211 1219.78 106.004C1221.57 109.114 1223.81 108.782 1226.6 108.122C1228.93 107.583 1230.35 109.262 1230.6 111.633C1230.83 113.844 1229.31 114.043 1227.67 114.094C1226.91 114.114 1225.74 113.985 1225.46 114.403C1219.11 123.614 1210.79 117.192 1203.27 117.415C1196.6 117.602 1189.63 115.102 1183.27 119.192C1182.67 119.583 1181.81 120.153 1181.29 119.973C1173.85 117.403 1166.24 120.704 1159.07 119.704C1149.07 118.313 1139.12 119.653 1129.29 119.493C1118.35 119.313 1107.13 116.543 1095.88 120.075C1089.5 122.083 1082.45 118.395 1075.39 118.723C1071.54 118.895 1069.09 121.735 1064.92 121.172C1053.77 119.665 1042.43 119.313 1031.16 118.833C1029.81 118.774 1024.41 116.114 1027.26 122.184C1027.68 123.075 1026.56 123.743 1023.94 122.684C1018.65 120.563 1013.68 117.594 1007.53 118.633C1001.81 119.594 996.223 120.282 991.203 123.895C989.055 125.434 985.473 124.961 982.555 125.403C982.582 128.711 984.902 127.942 986.395 127.754C988.852 127.442 992.234 127.442 993.504 125.903C997.645 120.864 1002.34 130.872 1007.38 124.383C1010.2 120.754 1017.19 126.254 1022.65 126.524C1027.17 126.754 1031.35 127.543 1036.13 126.754C1042.84 125.633 1049.91 126.754 1056.81 126.743C1065.59 126.735 1074.22 127.813 1083.17 126.985C1092.11 126.165 1101.44 126.262 1110.76 127.485C1122.95 129.083 1135.52 128.325 1147.89 127.774C1166.39 126.954 1184.86 127.692 1203.35 127.895C1212.05 127.985 1220.79 128.325 1229.46 127.754C1235.94 127.313 1241.73 132.313 1248.39 129.563C1249.72 129.012 1250.56 130.442 1250.52 131.934C1250.48 133.614 1249.29 133.762 1247.97 134.024C1241.8 135.274 1235.54 132.473 1229.65 133.813C1223.95 135.122 1218.02 132.825 1212.47 136.704C1217.95 136.954 1223.42 137.204 1229.06 137.473C1228.65 138.813 1228.64 139.524 1228.34 139.684C1225.98 140.895 1220.88 140.454 1222.3 144.133C1223.74 147.883 1228.11 146.575 1231.62 145.055C1232.97 144.454 1234.35 142.313 1236.7 144.243C1235.68 147.633 1233.6 149.325 1229.77 149.364C1210.65 149.512 1191.57 149.153 1172.49 152.083C1163.39 153.485 1153.77 151.153 1144.38 151.055C1135.77 150.961 1127.12 150.622 1118.56 152.395C1105.39 155.102 1092.97 148.583 1079.55 149.204C1082.02 142.754 1089.15 151.243 1091.13 144.692C1088.26 144.692 1085.25 144.793 1082.23 144.653C1080.61 144.575 1079.13 143.524 1079.2 141.883C1079.29 139.575 1081.22 140.415 1082.65 140.403C1092.75 140.352 1102.87 140.282 1112.98 140.133C1114.86 140.094 1117.02 140.825 1118.7 138.942C1110.02 134.325 1100.72 138.153 1091.6 136.075C1083.97 134.344 1074.33 136.735 1065.55 137.102C1056.47 137.473 1047.2 136.313 1037.01 139.754C1043.62 141.922 1049.04 142.633 1054.5 140.735C1056.56 140.024 1058.5 140.184 1060.49 140.313C1061.8 140.395 1063.02 141.243 1062.68 142.754C1062.4 144.032 1061.27 145.024 1059.84 144.504C1051.94 141.653 1044.15 146.305 1036.3 144.743C1034.21 144.325 1031.26 146.145 1030.17 143.415C1029.25 141.102 1033.05 140.833 1034 138.114C1026.35 138.575 1019.57 138.864 1012.63 135.372C1008.83 133.454 1002.8 137.094 997.984 138.032C991.133 139.372 984.672 136.325 978.215 138.563C976.602 139.114 974.555 138.493 973.691 141.653C981.652 141.653 989.402 141.633 997.152 141.665C998.953 141.672 1000.76 138.684 1002.48 141.442C1004.2 144.192 1000.07 144.684 1000.08 147.575C1006.21 147.504 1012.31 148.922 1018.51 146.614C1020.44 145.903 1023.2 145.325 1024.85 147.493C1025.46 148.313 1025.48 150.364 1024.88 151.153C1023.17 153.383 1020.76 151.493 1018.75 151.692C1012.66 152.293 1006.58 150.434 1000.3 152.934C996.715 154.364 991.562 153.594 987.504 153.254C978.055 152.454 968.863 152.594 959.473 153.754C954.223 154.403 948.742 152.805 943.363 152.793C929.852 152.774 916.363 152.672 902.805 153.493C890.633 154.235 878.223 154.614 865.922 153.954C865.41 153.922 864.656 154.114 864.426 153.852C858.91 147.473 851.891 151.993 845.922 152.004C829.066 152.063 812.355 153.504 795.344 151.704C788.133 150.934 779.414 154.055 771.594 153.645C759.176 152.993 747.125 155.844 734.801 155.594C714.129 155.192 693.449 155.383 672.766 155.422C668.707 155.434 664.828 153.782 660.965 153.204C655.16 152.344 649.902 153.575 644.746 154.254C629.25 156.293 613.77 154.793 598.309 155.442C596.754 155.504 594.625 156.243 594.273 153.325C593.93 150.493 596.551 151.192 597.188 150.461C599.559 147.711 602.945 149.293 606.414 146.684C591.625 144.704 578.09 146.711 564.469 147.622C566.613 150.372 570.875 146.665 571.77 150.942C572.098 152.512 571.246 155.645 570.742 156.083C567.719 158.735 562.953 158.614 559.938 157.993C550.379 156.024 540.371 160.645 532.016 157.825C521.797 154.383 512.547 163.454 502.746 157.614C501.492 156.864 496.449 161.243 492.547 159.895C482.484 156.415 472.738 157.004 463.07 161.313C460.859 162.293 458.707 160.665 456.574 160.434C445.672 159.313 434.484 162.364 422.473 157.094C435.066 155.243 446.512 153.563 458.141 154.243C467.18 154.762 476.023 154.274 484.688 151.524C484.789 151.493 484.637 150.645 484.609 150.192C488.383 151.372 492.414 150.692 496.043 151.262C516.328 154.493 536.137 150.024 557.758 149.184C552.75 146.055 549.02 148.012 545.523 147.954C525.199 147.594 504.867 147.434 484.656 150.243H425.648C436.391 145.954 446.566 148.645 456.406 147.415C459.762 146.993 463.168 147.305 466.719 146.645C477.82 144.563 489.16 144.922 500.438 144.665C516.285 144.282 532.125 143.555 547.945 142.594C562.289 141.735 576.633 141.543 590.984 141.235C600.977 141.012 611.277 140.614 621.285 138.614C623.461 138.184 623.672 136.864 623.145 135.344C622.555 133.665 621.316 133.844 620.504 135.254C619.918 136.262 619.539 136.915 618.445 135.852C611.488 129.172 601.68 130.883 595.496 133.352C588.551 136.114 582.258 133.793 576.051 135.633C568.98 137.743 561.859 139.754 554.512 138.532C545.281 137.004 535.484 136.364 526.719 136.493C506.043 136.813 485.25 135.922 464.457 137.915C450.457 139.262 436.113 140.563 421.812 139.665C414.059 139.184 406.168 139.395 398.449 140.274C376.75 142.743 354.891 141.704 333.18 143.653C321.664 144.684 310.117 146.344 298.609 146.165C279.422 145.864 260.594 149.915 241.391 149.594C228.25 149.372 215.086 151.774 201.91 152.153C191.437 152.454 181.004 151.524 170.438 152.122C154.117 153.043 138.074 156.364 121.711 156.594C109.312 156.774 97.0312 160.543 84.5039 157.762C83.168 157.461 81.543 158.293 80.082 158.704C72.2461 160.915 64.1211 155.543 62.3438 146.012C64.8867 149.434 66.5234 149.364 69.207 146.813C71.0586 145.043 73.4687 142.532 77.1289 143.083C78.7891 143.344 83.8906 144.922 80.3867 139.563C80.3359 139.493 80.8477 138.805 81.1289 138.782C82.125 138.711 82.8047 138.973 83.5508 139.973C87.0859 144.743 86.8359 142.024 91.0859 140.282C95.0664 138.653 99.2617 135.122 104.203 135.602C108.195 135.993 112.152 136.754 116.59 137.403C114.344 139.825 111.273 137.282 109.09 140.422C119.051 139.102 128.617 141.774 137.773 137.883C138.266 137.665 139.191 138.094 139.746 138.473C144.902 141.993 148.391 139.473 151.652 135.415C153.141 133.563 155.012 132.024 156.812 130.223C151.211 128.063 145.875 129.383 140.578 129.352C137.555 129.325 133.523 132.032 131.785 126.793C131.641 126.333 128.559 126.083 128.324 126.524C124.074 134.583 124.816 123.024 121.73 125.993C122.91 131.122 122.016 135.243 114.555 131.153C103.469 137.153 92.3555 131.122 81.2578 131.333C79.3672 131.364 77.4414 132.461 75.6328 133.282C73.1953 134.403 70.2656 134.985 68.5938 133.094C60.2422 123.614 48.9336 126.493 38.7734 126.223C31.125 126.024 25.2031 124.442 22.0625 116.735C28.9648 121.993 34.9531 117.844 41.2344 117.274C41.4492 114.442 39.0273 115.614 38.1914 115.704C26.9023 116.825 17.7695 108.793 6.82031 108.364C5.34375 108.313 0.558594 107.594 4.27734 103.743C6.62109 101.325 4.63281 99.5122 3.73828 97.4849C12.3281 96.7739 20.7812 96.0747 29.5781 95.3442C25.5156 87.8716 18.1289 90.5122 12.7422 90.0122C6.60156 89.4614 2.79297 87.6528 0 82.4224C3.94531 81.4849 7.78516 80.6919 11.5273 79.5747C12.5117 79.2817 14.4492 80.6841 14.4609 78.6841C14.5117 70.0239 23.2969 72.5435 25.0469 73.2817C32.1602 76.2739 33.6602 70.6021 36.957 67.5044C40.7227 68.1919 44.4609 68.9419 48.2344 69.4731C49.0742 69.5942 51.0352 70.4028 50.5547 68.1333C50.3242 67.063 51.707 64.8521 48.9844 65.063C44.9141 65.3833 40.3594 63.5317 37.1172 67.6528Z" fill="#8C3DFF"/>
<path fill-rule="evenodd" clip-rule="evenodd" d="M863.805 4.71151C863.063 7.37167 865.484 9.67245 863.383 10.8521C861.383 11.9732 860.727 9.36386 859.41 8.47323C856.942 6.83261 855.117 10.1529 852.297 9.96151C838.613 8.99276 824.938 10.2545 811.27 11.1451C809.738 11.2428 808.652 10.7037 808.203 9.52401C807.649 8.04355 809.41 8.03183 810.024 7.98495C817.965 7.27402 813.32 3.77402 810.809 0.0435462C819.965 2.65292 828.164 -1.34708 836.555 0.512296C839.754 1.22323 843.602 0.35214 841.563 5.7623C841.379 6.2623 842.063 7.63339 842.152 7.61386C843.613 7.3248 846.031 7.24276 846.324 6.41464C849.008 -0.975985 856.668 0.723234 860.379 1.43417C867.484 2.78183 873.692 -1.08536 880.563 0.38339C884.133 1.15292 887.942 1.71151 891.633 2.06308C897.914 2.66464 904.082 0.441983 910.543 0.844327C916.274 1.2037 922.332 2.12167 927.703 1.63339C939.024 0.594328 950.274 4.03183 961.563 1.15292C964.883 0.313078 968.922 1.81308 972.504 2.74276C974.371 3.22323 975.031 5.36386 974.363 7.2037C973.563 9.39511 971.594 9.75448 969.363 9.86386C962.594 10.2115 956.145 7.52401 949.293 8.17245C939.715 9.06308 930.082 9.36386 920.473 10.0045C918.442 10.1334 897.442 6.75448 895.484 7.24276C890.074 8.55526 884.684 7.34433 879.313 8.10214C874.012 8.85214 868.262 10.6139 863.805 4.71151Z" fill="#8C3DFF"/>
<path fill-rule="evenodd" clip-rule="evenodd" d="M992.453 3.58264C1001.17 4.29358 1008.73 2.44202 1016.22 5.0553C1020.08 6.40295 1023.33 2.84436 1027.56 3.19202C1041.4 4.32483 1055.33 5.22327 1069.2 5.04358C1083.89 4.84436 1098.25 8.40295 1112.92 7.95374C1114.43 7.91467 1117.55 7.53186 1117.09 10.8834C1116.65 14.0944 1113.88 12.9225 1112.23 12.7936C1104.24 12.1139 1095.95 10.5319 1088.33 10.692C1076.94 10.9225 1065.53 10.4147 1054.15 10.8326C1044.89 11.1725 1035.18 10.7936 1026.52 9.71155C1016.33 8.4342 1006.71 9.50452 996.844 9.5553C993.633 9.57483 994.172 6.63342 992.453 3.58264Z" fill="#8C3DFF"/>
<path fill-rule="evenodd" clip-rule="evenodd" d="M252.426 166.044C257.695 168.743 262.187 163.192 266.117 164.985C272.77 168.024 277.863 162.852 283.895 163.395C290.711 164.004 297.523 163.473 304.316 161.883C310.309 160.461 316.078 164.454 322.25 163.743C323.164 163.633 324.422 165.133 324.016 166.645C323.676 167.903 322.441 167.633 321.512 167.735C318.547 168.024 315.242 168.922 312.699 168.723C296.105 167.415 279.895 170.563 263.52 171.672C259.555 171.942 254.957 171.622 252.426 166.044Z" fill="#8C3DFF"/>
<path fill-rule="evenodd" clip-rule="evenodd" d="M79.9298 37.4415C89.4063 37.4415 98.4962 37.3712 107.59 37.504C109.336 37.5314 111.895 36.172 112.625 39.2423C112.844 40.172 112.336 42.0314 111.711 41.672C108.387 39.7345 108.02 47.754 104.734 43.7619C101.27 39.5744 98.2345 40.0744 94.0743 42.8439C87.7579 47.0548 79.9376 44.2619 73.0626 46.4142C71.7267 46.8244 70.754 45.4337 70.1837 44.3126C69.4454 42.8517 70.5509 41.5431 71.5704 41.2228C74.6407 40.2814 76.3634 36.2345 79.9298 37.4415Z" fill="#8C3DFF"/>
<path fill-rule="evenodd" clip-rule="evenodd" d="M132.355 5.92238C144.184 2.57472 156.172 4.01222 168.062 3.72316C169.27 3.6841 170.848 3.54347 170.715 5.41457C170.629 6.65285 169.844 7.41457 168.355 7.64504C161.762 8.6841 155.148 10.9419 148.617 10.7232C143.191 10.5239 137.973 7.08254 132.355 5.92238Z" fill="#8C3DFF"/>
<path fill-rule="evenodd" clip-rule="evenodd" d="M543.109 12.9731C521.793 12.0044 500.387 14.4145 479.098 12.2739C500.508 9.41454 521.816 10.8247 543.109 12.9731Z" fill="#8C3DFF"/>
<path fill-rule="evenodd" clip-rule="evenodd" d="M265.02 159.063C285.691 157.782 306.363 156.504 327.023 155.223C327.07 156.055 327.113 156.872 327.152 157.704C306.418 158.864 285.672 160.024 264.938 161.192L265.02 159.063Z" fill="#8C3DFF"/>
<path fill-rule="evenodd" clip-rule="evenodd" d="M210.301 15.3638C208.715 15.7739 207.348 16.1216 205.977 16.4731C208.48 17.2544 212.211 18.7544 212.922 16.3052C213.82 13.1724 215.578 14.7427 216.855 14.4341C218.781 13.9614 220.805 11.2427 222.754 14.0122C223.355 14.8638 223.344 16.6528 222.863 17.6646C221.746 20.0317 219.316 18.6333 217.484 19.0044C209.043 20.7544 201.508 16.2544 193.262 15.5122C194.246 13.0435 196.281 11.1528 196.562 7.94189C197.297 19.2544 207.543 8.76221 210.301 15.3638Z" fill="#8C3DFF"/>
<path fill-rule="evenodd" clip-rule="evenodd" d="M90.4297 176.512C100.656 173.325 111.285 174.864 121.688 173.364C118.09 176.895 112.973 175.043 109.27 177.692C110.82 180.973 113.812 177.883 116.066 178.782C110.199 183.133 109.918 183.004 104.617 179.165C102.215 177.415 99.3008 175.793 96.1953 177.555C93.8125 178.915 92.0078 178.942 90.4297 176.512Z" fill="#8C3DFF"/>
<path fill-rule="evenodd" clip-rule="evenodd" d="M212.109 170.004C219.605 169.703 224.723 164.672 230.613 167.774C231.438 168.203 233.543 166.922 232.902 169.254C232.602 170.352 232.387 172.485 230.992 172.133C224.852 170.575 219.363 174.563 213.402 173.871C211.844 173.692 209.473 174.653 209.473 171.692C209.484 168.133 212.336 169.895 212.109 170.004Z" fill="#8C3DFF"/>
<path fill-rule="evenodd" clip-rule="evenodd" d="M444.645 11.6138C433.859 13.5747 422.887 14.5044 411.973 12.145C422.816 9.44191 433.648 10.9849 444.645 11.6138Z" fill="#8C3DFF"/>
<path fill-rule="evenodd" clip-rule="evenodd" d="M1144.92 14.1528C1137.17 13.6919 1130.18 13.2544 1123.19 12.8833C1121.34 12.7935 1119.24 12.5552 1119.68 10.2739C1120.11 8.11377 1122.17 9.29345 1123.72 9.0747C1131.07 8.05517 1138.07 12.0552 1145.35 10.1724C1147.61 9.59424 1149.24 11.063 1149.03 12.7231C1148.68 15.7231 1145.82 13.8247 1144.92 14.1528Z" fill="#8C3DFF"/>
<path fill-rule="evenodd" clip-rule="evenodd" d="M171.438 12.9613C173.191 3.42225 176.828 2.52381 200.867 4.04334C192.016 11.5629 179.121 0.0745907 171.438 12.9613Z" fill="#8C3DFF"/>
<path fill-rule="evenodd" clip-rule="evenodd" d="M661.39 17.7543C659.16 17.5043 657.453 15.8519 655.008 15.8246C652.719 15.7933 650.355 17.3519 648.183 15.7816C647.867 15.5629 648.187 13.7621 648.308 13.7543C651.957 13.4027 654.547 9.26209 658.48 10.5316C662.207 11.7426 664.98 13.7816 661.172 17.9613C661.16 17.973 661.39 17.7543 661.39 17.7543Z" fill="#8C3DFF"/>
<path fill-rule="evenodd" clip-rule="evenodd" d="M385.742 153.653C394.496 149.344 403.996 152.204 413.008 150.325C404.434 156.383 394.785 152.083 385.742 153.653Z" fill="#8C3DFF"/>
<path fill-rule="evenodd" clip-rule="evenodd" d="M371.883 162.723C378.113 156.532 386.051 160.434 392.453 157.793C392.785 157.664 393.922 158.485 394.043 159.004C394.406 160.575 393.137 161.563 391.965 161.442C388.062 161.024 384.527 165.102 380.332 162.004C377.953 160.254 375.176 162.864 371.883 162.723Z" fill="#8C3DFF"/>
<path fill-rule="evenodd" clip-rule="evenodd" d="M694.992 1.34424H713.652C713.633 1.97314 713.613 2.58252 713.594 3.21143C707.312 4.00439 701.051 4.00439 694.992 1.34424Z" fill="#8C3DFF"/>
<path fill-rule="evenodd" clip-rule="evenodd" d="M415.457 123.145C414.754 124.333 414.996 126.274 412.832 126.293C411.325 126.313 409.731 126.184 408.325 126.614C406.141 127.293 403.274 129.633 402.161 126.614C401.188 123.985 405.235 122.864 406.993 122.165C409.536 121.153 412.836 121.133 415.7 122.454C415.719 122.461 415.539 122.903 415.457 123.145Z" fill="#8C3DFF"/>
</svg>
